<?xml version="1.0" standalone="no"?>
<!DOCTYPE svg PUBLIC "-//W3C//DTD SVG 20010904//EN"
 "http://www.w3.org/TR/2001/REC-SVG-20010904/DTD/svg10.dtd">
<svg version="1.0" xmlns="http://www.w3.org/2000/svg"
 width="700.000000pt" height="700.000000pt" viewBox="0 0 700.000000 700.000000"
 preserveAspectRatio="xMidYMid meet">
<metadata>
Created by potrace 1.16, written by Peter Selinger 2001-2019
</metadata>
<g transform="translate(0.000000,700.000000) scale(0.100000,-0.100000)"
fill="#000000" stroke="none">
<path d="M3050 6980 c-664 -88 -1235 -334 -1774 -764 -133 -105 -399 -373
-509 -511 -421 -526 -674 -1133 -752 -1805 -18 -146 -20 -636 -5 -775 114
-1018 645 -1918 1478 -2502 477 -335 1016 -538 1612 -608 172 -21 643 -20 810
0 778 95 1468 422 2025 956 551 531 903 1207 1032 1986 23 140 26 194 30 478
5 342 0 434 -43 679 -59 338 -150 617 -304 931 -164 335 -367 625 -623 891
-570 592 -1327 962 -2159 1053 -160 18 -659 12 -818 -9z m780 -1136 c249 -35
488 -110 720 -226 264 -131 444 -263 650 -474 319 -328 523 -713 620 -1174 27
-129 56 -398 44 -410 -5 -5 -763 -182 -1684 -395 -921 -212 -1683 -389 -1693
-393 -17 -7 -15 -13 24 -62 219 -277 566 -454 932 -476 250 -15 542 68 763
217 88 59 241 202 305 285 23 30 48 54 55 54 26 0 1079 -243 1088 -251 10 -9
-71 -172 -144 -290 -159 -256 -392 -503 -648 -686 -432 -310 -1013 -468 -1549
-424 -859 72 -1622 609 -1971 1387 -87 195 -153 421 -188 649 -21 135 -24 477
-5 615 70 526 291 983 661 1364 412 425 950 670 1560 710 98 6 352 -5 460 -20z"/>
<path d="M3366 4760 c-306 -38 -540 -153 -757 -369 -181 -181 -294 -383 -343
-616 -12 -60 -12 -65 3 -61 22 7 723 170 1271 296 930 214 975 225 975 239 0
17 -116 144 -192 210 -218 189 -483 292 -778 305 -60 3 -141 1 -179 -4z"/>
</g>
</svg>
